<?xml version="1.0" standalone="no"?>
<!DOCTYPE svg PUBLIC "-//W3C//DTD SVG 20010904//EN"
 "http://www.w3.org/TR/2001/REC-SVG-20010904/DTD/svg10.dtd">
<svg version="1.0" xmlns="http://www.w3.org/2000/svg"
 width="200.000000pt" height="200.000000pt" viewBox="0 0 200.000000 200.000000"
 preserveAspectRatio="xMidYMid meet">

<g transform="translate(0.000000,200.000000) scale(0.100000,-0.100000)"
fill="#000000" stroke="none">
<path d="M0 1000 l0 -1000 1000 0 1000 0 0 1000 0 1000 -1000 0 -1000 0 0
-1000z m1135 575 c101 -26 184 -74 260 -150 112 -112 165 -241 165 -400 0
-419 -438 -690 -816 -504 -143 71 -266 226 -299 377 l-7 32 90 0 89 0 12 -39
c6 -22 31 -66 55 -98 87 -119 234 -179 377 -153 325 59 441 450 199 673 -193
179 -506 120 -616 -117 -13 -28 -24 -57 -24 -63 0 -10 -25 -13 -90 -13 -49 0
-90 4 -90 9 0 32 46 147 80 199 77 119 191 205 325 243 76 22 212 24 290 4z"/>
</g>
</svg>
