<?xml version="1.0" standalone="no"?>
<!DOCTYPE svg PUBLIC "-//W3C//DTD SVG 20010904//EN"
 "http://www.w3.org/TR/2001/REC-SVG-20010904/DTD/svg10.dtd">
<svg version="1.0" xmlns="http://www.w3.org/2000/svg"
 width="1500.000000pt" height="1500.000000pt" viewBox="0 0 1500.000000 1500.000000"
 preserveAspectRatio="xMidYMid meet">

<!-- Add a black background rectangle -->
<rect width="100%" height="100%" fill="#FFFFFF"/>

<!-- The center graphic with white fill -->
<g transform="translate(0.000000,1500.000000) scale(0.100000,-0.100000)"
fill="#000000" stroke="none">
<path d="M0 7500 l0 -7500 7500 0 7500 0 0 7500 0 7500 -7500 0 -7500 0 0
-7500z m7980 5865 c201 -16 347 -36 438 -60 32 -8 106 -22 164 -30 59 -9 146
-27 195 -41 48 -14 122 -34 163 -45 127 -33 202 -56 275 -82 39 -14 104 -35
145 -47 41 -12 89 -30 105 -40 17 -10 66 -30 110 -45 44 -15 105 -40 135 -56
30 -15 80 -37 110 -49 30 -12 71 -31 90 -42 19 -11 100 -55 180 -96 150 -77
255 -140 424 -251 54 -37 126 -83 158 -104 33 -21 72 -49 86 -63 15 -14 45
-34 66 -46 21 -11 60 -39 85 -62 25 -23 71 -62 101 -86 30 -25 57 -47 60 -50
3 -3 30 -27 60 -54 137 -122 280 -257 345 -325 38 -41 88 -93 110 -116 35 -37
115 -130 281 -329 27 -34 70 -90 95 -125 24 -35 70 -100 101 -145 32 -45 71
-104 88 -132 16 -29 37 -58 46 -65 9 -7 29 -40 46 -73 17 -34 41 -74 53 -91
13 -16 34 -52 47 -80 14 -27 38 -72 54 -100 56 -95 232 -467 249 -525 4 -14
23 -60 41 -103 19 -43 47 -123 64 -177 16 -54 35 -111 43 -127 8 -15 23 -59
32 -98 10 -38 28 -108 42 -155 41 -140 72 -273 88 -377 8 -54 22 -123 30 -153
51 -184 85 -811 66 -1215 -17 -376 -35 -540 -80 -743 -11 -48 -31 -148 -46
-222 -15 -74 -35 -160 -45 -190 -11 -30 -30 -100 -44 -155 -14 -55 -36 -125
-49 -155 -13 -30 -34 -90 -46 -133 -12 -44 -37 -112 -56 -152 -18 -40 -41 -99
-51 -132 -9 -32 -29 -81 -45 -108 -15 -28 -35 -69 -43 -93 -8 -23 -52 -111
-97 -195 -45 -83 -97 -181 -116 -217 -19 -35 -40 -71 -47 -80 -8 -8 -21 -31
-31 -50 -22 -44 -264 -408 -276 -416 -5 -3 -25 -29 -44 -57 -19 -29 -59 -81
-90 -117 -30 -36 -69 -83 -86 -105 -131 -173 -610 -646 -766 -757 -44 -31
-155 -118 -173 -135 -14 -13 -119 -87 -275 -193 -118 -80 -161 -107 -230 -144
-38 -21 -77 -44 -85 -51 -8 -7 -44 -27 -80 -45 -36 -18 -77 -41 -93 -52 -15
-11 -54 -30 -86 -43 -33 -14 -81 -37 -108 -53 -26 -15 -82 -41 -123 -56 -41
-16 -80 -33 -85 -37 -17 -13 -280 -113 -390 -149 -55 -17 -133 -43 -174 -57
-102 -33 -449 -121 -546 -138 -291 -50 -570 -85 -745 -95 -356 -18 -765 -8
-985 26 -55 8 -176 26 -270 40 -93 14 -208 33 -255 43 -130 28 -420 107 -555
151 -66 22 -127 40 -135 40 -8 0 -44 14 -80 31 -36 17 -90 39 -120 48 -155 49
-650 296 -865 433 -41 26 -89 55 -107 64 -18 9 -51 31 -73 49 -22 18 -54 39
-72 49 -28 14 -116 78 -287 209 -276 212 -716 641 -878 856 -42 57 -217 285
-226 296 -26 32 -165 242 -183 278 -12 23 -32 56 -45 72 -12 17 -37 57 -55 90
-17 33 -38 67 -45 75 -23 27 -202 387 -239 482 -21 51 -42 98 -47 105 -8 10
-68 169 -133 353 -67 187 -187 642 -201 755 -5 45 -3 52 21 75 l27 25 795 3
c699 2 802 1 843 -13 54 -18 62 -29 90 -140 12 -44 32 -111 46 -150 76 -209
95 -255 123 -312 17 -34 31 -65 31 -69 0 -15 129 -260 164 -313 20 -29 36 -57
36 -62 0 -17 170 -263 265 -385 179 -228 446 -498 631 -640 28 -21 89 -68 135
-104 46 -36 111 -81 144 -100 33 -18 62 -37 65 -41 17 -24 341 -203 435 -241
28 -10 73 -32 100 -47 28 -16 86 -40 130 -53 44 -14 107 -38 140 -52 33 -15
114 -41 180 -58 66 -16 136 -37 155 -44 59 -25 158 -42 570 -98 237 -32 568
-31 800 4 425 64 483 74 560 100 47 16 117 36 157 45 40 8 101 26 135 41 35
14 104 40 153 59 50 18 123 49 163 69 40 20 77 36 83 36 26 0 215 108 464 263
72 45 247 169 265 187 8 9 29 26 45 38 237 180 631 605 780 843 172 274 182
292 296 519 38 74 69 140 69 147 0 7 16 48 36 93 36 84 84 223 84 250 1 8 14
49 30 90 17 41 42 134 55 205 14 72 34 171 45 220 39 178 52 344 52 665 0 331
-13 482 -57 684 -13 61 -29 140 -35 176 -14 82 -49 222 -59 235 -4 6 -15 35
-24 65 -44 150 -57 192 -68 213 -7 12 -29 65 -50 117 -53 137 -124 287 -157
334 -15 23 -39 66 -52 96 -12 30 -31 66 -42 80 -11 14 -57 83 -103 153 -46 70
-98 144 -114 163 -17 19 -31 38 -31 42 0 5 -8 17 -18 28 -10 10 -36 42 -59 71
-22 29 -52 65 -66 80 -197 214 -255 276 -303 318 -203 178 -254 220 -323 267
-31 20 -101 69 -156 108 -55 38 -104 70 -110 70 -5 0 -32 18 -60 40 -27 22
-55 40 -60 40 -6 0 -44 21 -85 46 -41 25 -106 57 -145 71 -38 14 -86 36 -106
50 -21 14 -75 37 -121 53 -47 15 -102 37 -124 48 -48 24 -350 119 -444 138
-415 88 -578 107 -925 106 -303 0 -454 -15 -733 -72 -230 -46 -561 -139 -641
-179 -20 -10 -65 -28 -101 -40 -36 -11 -128 -53 -205 -93 -77 -39 -170 -87
-207 -105 -37 -18 -70 -38 -74 -44 -3 -6 -38 -26 -77 -45 -39 -18 -82 -44 -96
-58 -14 -13 -46 -36 -71 -51 -42 -26 -209 -152 -220 -166 -3 -3 -39 -34 -80
-69 -176 -146 -468 -444 -523 -534 -10 -16 -36 -50 -58 -75 -61 -71 -195 -268
-235 -346 -20 -38 -47 -83 -59 -100 -13 -16 -37 -58 -53 -92 -17 -34 -39 -77
-50 -95 -11 -18 -30 -60 -43 -93 -12 -33 -34 -82 -50 -110 -15 -27 -35 -77
-45 -110 -9 -33 -33 -103 -54 -155 -21 -52 -43 -120 -49 -150 -29 -137 -39
-157 -85 -180 -44 -21 -51 -21 -835 -20 -468 0 -801 4 -815 10 -44 16 -55 47
-45 121 4 37 17 102 29 145 12 44 34 133 49 199 37 154 134 475 166 541 13 28
29 71 35 95 7 24 36 97 66 161 30 64 54 120 54 125 0 14 196 398 232 455 20
30 39 64 42 76 4 11 29 54 55 94 27 40 58 92 69 115 12 23 27 45 33 48 6 4 31
39 56 79 25 39 73 106 107 150 34 43 72 94 85 114 24 36 125 159 146 177 6 6
31 35 56 65 77 95 345 370 469 480 40 36 80 72 88 80 85 84 491 384 693 513
178 114 484 277 639 342 36 15 79 35 95 45 17 10 68 32 114 49 46 17 89 35 96
41 15 13 273 101 400 137 50 14 149 42 220 63 72 21 177 46 235 55 58 9 166
30 240 45 196 42 232 46 750 74 119 7 532 -5 720 -19z"/>
</g>
</svg>